<svg height="512" viewBox="0 0 64 64" width="512" xmlns="http://www.w3.org/2000/svg"><g id="Armchair-2" data-name="Armchair"><path d="m55 53v8h-4l-2-8z" fill="#8b5e3c"/><path d="m15 53-2 8h-4v-8z" fill="#8b5e3c"/><path d="m57 47v5a1 1 0 0 1 -1 1h-48a1 1 0 0 1 -1-1v-5z" fill="#1e81ce"/><path d="m55 13v9.53a4.009 4.009 0 0 0 -2 3.47v15a6.022 6.022 0 0 0 -6-6h-30a6 6 0 0 0 -6 6v-15a4.009 4.009 0 0 0 -2-3.47v-9.53a10 10 0 0 1 10-10h26a10 10 0 0 1 10 10z" fill="#1e81ce"/><path d="m53 39v2a6 6 0 0 0 -6-6h-30a6 6 0 0 0 -6 6v-2a6 6 0 0 1 6-6h30a6 6 0 0 1 6 6z" fill="#1a6fb0"/><path d="m55 24v.53a4.009 4.009 0 0 0 -2 3.47v19h-2v-19a4.009 4.009 0 0 1 2-3.47 3.955 3.955 0 0 1 2-.53z" fill="#1a6fb0"/><path d="m9 24v.53a4.009 4.009 0 0 1 2 3.47v19h2v-19a4.009 4.009 0 0 0 -2-3.47 3.955 3.955 0 0 0 -2-.53z" fill="#1a6fb0"/><path d="m53 41v6h-42v-6a6 6 0 0 1 6-6h30a6 6 0 0 1 6 6z" fill="#3d9ae2"/><path d="m60.89 25.06a4 4 0 0 1 -3.89 4.94v17h-4v-21a3.994 3.994 0 0 1 4.94-3.89 3.96 3.96 0 0 1 2.95 2.95z" fill="#5aaae7"/><path d="m9 22.53a4.009 4.009 0 0 1 2 3.47v21h-4v-17a4 4 0 1 1 2-7.47z" fill="#5aaae7"/><path d="m15 53-.5 2h-5.5v-2z" fill="#754c29"/><path d="m55 53v2h-5.5l-.5-2z" fill="#754c29"/><path d="m7 46h50v2h-50z" fill="#96c8ef"/><g fill="#1a6fb0"><path d="m28 12h-2v1h-1v2h1v1h2v-1h1v-2h-1z"/><path d="m18 12h-2v1h-1v2h1v1h2v-1h1v-2h-1z"/><path d="m38 12h-2v1h-1v2h1v1h2v-1h1v-2h-1z"/><path d="m48 13v-1h-2v1h-1v2h1v1h2v-1h1v-2z"/><path d="m28 22h-2v1h-1v2h1v1h2v-1h1v-2h-1z"/><path d="m18 22h-2v1h-1v2h1v1h2v-1h1v-2h-1z"/><path d="m38 22h-2v1h-1v2h1v1h2v-1h1v-2h-1z"/><path d="m48 22h-2v1h-1v2h1v1h2v-1h1v-2h-1z"/></g><path d="m6 25h2v2h-2z" fill="#1e81ce"/><path d="m56 25h2v2h-2z" fill="#1e81ce"/></g></svg>