<svg xmlns="http://www.w3.org/2000/svg" viewBox="0 0 803 793"><defs><style>.cls-1,.cls-10{fill:#407bff;}.cls-13,.cls-15,.cls-16,.cls-2{fill:#fff;}.cls-2{opacity:0.9;}.cls-3{fill:#f5f5f5;}.cls-4{fill:#263238;}.cls-5{fill:#ffb573;}.cls-6{fill:#e0e0e0;}.cls-10,.cls-7{opacity:0.2;}.cls-8{fill:#ed893e;}.cls-9{fill:#fafafa;}.cls-11{fill:#ff8b7b;}.cls-12,.cls-13{opacity:0.1;}.cls-14{fill:#ff5652;}.cls-16{opacity:0.3;}</style></defs><title>Artboard 446</title><g id="Layer_7" data-name="Layer 7"><path class="cls-1" d="M715.6,451.69a198.56,198.56,0,0,1-14.74,17.65c-45.2,48.13-120,79.37-186,62.39C475.6,521.62,448,487.14,413.73,465.41c-43.16-27.34-97.89-33.57-147.21-41.3-66.6-10.45-128.65-26-170.69-82C60.88,295.64,47.52,232,72.65,178.49c23.91-50.86,63.78-95.81,107.8-130.34C218.33,18.44,258.91,6.9,303.63,31.48c29.21,16.05,51.8,41.57,74.84,65.64,26.05,27.21,59.36,60.93,98.31,66.83,37.17,5.62,75.6-12.7,112.8-13.17C651,150,709.42,190.84,736.06,246.21,767.71,312,758.41,394,715.6,451.69Z"/><path class="cls-2" d="M715.6,451.69a198.56,198.56,0,0,1-14.74,17.65c-45.2,48.13-120,79.37-186,62.39C475.6,521.62,448,487.14,413.73,465.41c-43.16-27.34-97.89-33.57-147.21-41.3-66.6-10.45-128.65-26-170.69-82C60.88,295.64,47.52,232,72.65,178.49c23.91-50.86,63.78-95.81,107.8-130.34C218.33,18.44,258.91,6.9,303.63,31.48c29.21,16.05,51.8,41.57,74.84,65.64,26.05,27.21,59.36,60.93,98.31,66.83,37.17,5.62,75.6-12.7,112.8-13.17C651,150,709.42,190.84,736.06,246.21,767.71,312,758.41,394,715.6,451.69Z"/><ellipse id="_Path_" data-name="&lt;Path&gt;" class="cls-3" cx="404.9" cy="757.32" rx="385.66" ry="22.52"/><path class="cls-4" d="M292.3,167.39c-15.49,12.77-30.63,33.36-21.75,55.66s65.7,24.58,77.59,15.38c15.51-12,1.8-65.08-10.29-65.39C336.91,153.37,305.25,156.7,292.3,167.39Z"/><path class="cls-5" d="M270.6,382.51s6.23,113.24,13.08,174.57c.71,57.58,13.85,187.67,13.85,187.67h14.53c2.45-64.54,20.42-124.81,8.48-181.74,27.94-111.79,8.78-180.43,8.78-180.43Z"/><path class="cls-5" d="M286.43,382.58s29.94,125.61,38.14,179.13c8.62,56.22,21.47,165.3,20.87,183H358s21.08-110.35,1.57-181.09C375.66,404.61,336,382.58,336,382.58Z"/><path class="cls-5" d="M214.65,237.27c-.94-6.77-13.39-7.35-13.39-7.35l-6-3c-2.5-1.26-5.22-.65-6.42,1.43l-1.9,3.3c-1.33,2.3-.34,5.61,2.21,7.45l1.81,1.3a19.73,19.73,0,0,0,10.5,3.69l5.51.29a10.24,10.24,0,0,0,3.58-.43,6,6,0,0,0,4.1-6.68Z"/><path class="cls-5" d="M280.23,277c-.75.76-1.16,1.14-1.72,1.65L276.95,280c-1,.88-2.11,1.7-3.17,2.51q-3.21,2.39-6.58,4.46A88.93,88.93,0,0,1,253,293.88a87.38,87.38,0,0,1-30.68,5.93h-.91a10.24,10.24,0,0,1-1.43-.12,11.82,11.82,0,0,1-2.73-.74,13,13,0,0,1-3.94-2.58,17.61,17.61,0,0,1-3.61-5.09,38.79,38.79,0,0,1-2.77-8.41A99.7,99.7,0,0,1,205,267.71a197,197,0,0,1,.6-29.27,4.45,4.45,0,0,1,8.86-.11v.11c1.08,9.27,2.3,18.68,3.93,27.69a105.18,105.18,0,0,0,3,12.91,23.47,23.47,0,0,0,2.11,5c.34.57.7.86.55.66a2.46,2.46,0,0,0-1-.65,4.13,4.13,0,0,0-1-.3c-.19,0-.36-.06-.54-.06h-.22l.2,0a86.83,86.83,0,0,0,12.69-2.11,89.14,89.14,0,0,0,12.14-4.05,80.63,80.63,0,0,0,11.31-5.89c1.81-1.11,3.56-2.29,5.24-3.53.83-.62,1.65-1.27,2.44-1.9l1.14-.95.89-.78L268,264a8.94,8.94,0,0,1,12.26,13Z"/><path class="cls-6" d="M290,254.89c-15.74-2.62-32.25,8.07-40.8,16.79-4.4,13.3,9.73,29.44,9.73,29.44s20.15-12.38,27.42-20.83S299.08,256.4,290,254.89Z"/><path class="cls-4" d="M338.75,381.07S361,396.8,365.19,449.2c1.67,20.61,4.67,102.9,11,138.31-22.78,16.27-91,14.05-101.64,4.53,3-71.58-24.35-166.58-4.51-210.25C302.84,377.76,338.75,381.07,338.75,381.07Z"/><path class="cls-7" d="M316.22,531.26c.31-30.1-4.13-71.51-17.6-96.05C303.23,465.84,316.22,531.26,316.22,531.26Z"/><path class="cls-6" d="M259.57,279.15c0,17-13.59,26,1.79,39.12.9,14.73,2,41.08,6.49,65.09,4.67,6.5,38.86,6,74.35-1.74-4.62-20.57-2.93-54.11,9.24-100a19.09,19.09,0,0,0-15.2-23.51c-2.92-.52-6-1-9.2-1.39-12.36-1.52-22.49-2.68-33.44-2.5-3.63.06-7.38.24-11,.47A24.49,24.49,0,0,0,259.57,279.15Z"/><rect class="cls-1" x="294.35" y="312.62" width="48.62" height="66.98" rx="1.48" ry="1.48" transform="translate(-68.58 78.94) rotate(-12.76)"/><path class="cls-1" d="M297.63,276.23s-6.74,8.07-12.31,10l-.64,4A30.18,30.18,0,0,0,303,280.76Z"/><path class="cls-1" d="M279.32,271.35S279,281.86,281.94,287l-2.17,3.42a30.18,30.18,0,0,1-7.5-19.25Z"/><path class="cls-5" d="M325.68,218.91C323,229.5,319.88,249,327,256.75c0,0-26.66,7.28-44,31.15-7.87-25.08,10.61-33.65,10.61-33.65,12.15-2,12.3-10.87,10.64-19.37Z"/><path class="cls-7" d="M316.94,225.43l-12.69,9.44a34.75,34.75,0,0,1,.72,6c4.62-.32,11.17-4.87,11.91-9.63A16.12,16.12,0,0,0,316.94,225.43Z"/><path class="cls-5" d="M338,200.06c-5.1,17.15-6.9,24.53-17.66,31.27-16.18,10.14-35.87-.29-35.93-18.72-.05-16.59,8.3-41.86,26.73-44.52C329.35,165.47,343.15,182.91,338,200.06Z"/><path class="cls-4" d="M324.69,175c-4.84,16.53-.7,33.91,9.17,35.88,13.7-5.11,13-20.33,9.53-27.3S327.47,165.5,324.69,175Z"/><path class="cls-4" d="M332.18,204.71c-7.62,2.54-9.1,7.66-9.1,7.66s5.23-3.71,10.24-3A10.81,10.81,0,0,1,332.18,204.71Z"/><path class="cls-4" d="M313.14,198.45c-.33,1.42-1.35,2.38-2.29,2.14s-1.42-1.58-1.09-3,1.35-2.38,2.29-2.14S313.47,197,313.14,198.45Z"/><path class="cls-4" d="M295.54,194.25c-.33,1.42-1.35,2.38-2.29,2.14s-1.42-1.58-1.09-3,1.35-2.38,2.29-2.14S295.87,192.83,295.54,194.25Z"/><path class="cls-4" d="M294.84,191.43l-3.2-1.85S292.78,192.69,294.84,191.43Z"/><path class="cls-8" d="M298.84,196.56s-3.84,5.49-7.19,7.76c1.48,2.23,4.87,2.24,4.87,2.24Z"/><path class="cls-5" d="M338.14,217.27a11.27,11.27,0,0,1-8.53,4c-4.15-.11-4.87-4.88-2.58-8.81,2.06-3.54,6.69-7.74,10.31-5.73S341,214,338.14,217.27Z"/><path class="cls-4" d="M316.47,192.36a.89.89,0,0,1-.45-.52,7.07,7.07,0,0,0-4.31-4.57.89.89,0,0,1-.62-1.06.84.84,0,0,1,1-.59,8.8,8.8,0,0,1,5.51,5.71.84.84,0,0,1-.54,1.08A.86.86,0,0,1,316.47,192.36Z"/><path class="cls-4" d="M289.1,185.78a.87.87,0,0,1-.6-.23.86.86,0,0,1-.08-1.22,8.37,8.37,0,0,1,7.25-2.85.88.88,0,0,1,.73,1,.84.84,0,0,1-1,.7,6.67,6.67,0,0,0-5.71,2.32A.84.84,0,0,1,289.1,185.78Z"/><path class="cls-4" d="M312.45,195.64l-3.2-1.85S310.39,196.89,312.45,195.64Z"/><path class="cls-5" d="M311.32,336.86l-15.74-3.08,1.79,18.28s11.86-.52,18.75-6l.64-2.4C315.93,339.75,315,338.31,311.32,336.86Z"/><path class="cls-5" d="M285.93,341.59l1.86,7.73a4.56,4.56,0,0,0,5.14,3.44l4.44-.7-1.79-18.28-6.77,2.47A4.56,4.56,0,0,0,285.93,341.59Z"/><path class="cls-5" d="M347,271.47a238.51,238.51,0,0,1,12.62,28.64c1.8,4.92,3.48,9.92,4.84,15.11a93.66,93.66,0,0,1,3,16.31c.12,1.44.18,2.93.19,4.45v.53l-.05.86a10.05,10.05,0,0,1-.31,1.73,10.89,10.89,0,0,1-1.35,3.09,12.61,12.61,0,0,1-3.54,3.61,19,19,0,0,1-5.65,2.52,37.63,37.63,0,0,1-4.63,1,91.46,91.46,0,0,1-16.36.61,210.2,210.2,0,0,1-30.8-3.69,4.45,4.45,0,0,1,.75-8.83h.1c9.93-.19,20-.44,29.69-1.19a95,95,0,0,0,13.79-1.9,21.27,21.27,0,0,0,2.72-.83,3.12,3.12,0,0,0,1.19-.64,2.5,2.5,0,0,0-.91.93,5.09,5.09,0,0,0-.61,1.36,6.58,6.58,0,0,0-.16.8,3.31,3.31,0,0,0,0,.39v.06c-.08-1-.18-2-.34-3.1-1.31-8.6-4.59-17.88-8.09-26.87s-7.74-18.09-11.94-26.7l-.09-.18a8.95,8.95,0,0,1,16-8.06Z"/><path class="cls-6" d="M337.35,258.77c11.4,2.11,16.48,12.34,24.73,32.78-2.6,13.76-22.79,21-22.79,21s-11.61-20.6-13.87-31.51S325.78,256.63,337.35,258.77Z"/><path class="cls-4" d="M313.19,744.85a1.25,1.25,0,0,0-1.31-.81l-13.5-.2a7.37,7.37,0,0,0-4.07.87c-4,2.75-11.24,5.9-20.33,7.26-2.87.43-1.57,5.27,5.18,5.35,11.17.12,13.19-.72,22.72-.62,8.15.09,4.26.46,10.73.61,1.55,0,2.82-1,2.61-2Z"/><path class="cls-4" d="M359.71,744.85a1.28,1.28,0,0,0-1.33-.81l-11-.2a7.27,7.27,0,0,0-4.05.87c-3.94,2.75-3.43,5.9-12.49,7.26-2.86.43-1.46,5.27,5.3,5.35,11.17.12,10.49-.62,15-.62s1.76.46,8.23.61c1.55,0,2.8-1,2.57-2Z"/><path class="cls-9" d="M290.29,279.29c5.65.25,16,4.87,19.33,9.83,4.7-4.88,23-16.2,23.36-31.53a15.9,15.9,0,0,0-8.13-4.18S300.39,265.25,290.29,279.29Z"/><path class="cls-9" d="M281.13,278.5s-1.52-12.39,13.47-24.43c-1.5-1.24-7.42.17-7.42.17s-17.54,7.54-17,27A15,15,0,0,1,281.13,278.5Z"/><path class="cls-1" d="M278.92,283.74c-2.17,1-3,8.07,0,9.73s2.73-5.09,4.48-7.41S282.72,282,278.92,283.74Z"/><path class="cls-1" d="M281.51,286.5c-1.55,2,.45,8.75,3.81,8.72s.45-5.93,1.12-8.9S284.23,283,281.51,286.5Z"/><path class="cls-1" d="M282,291.52c-3.72-5.74-4,24.55,5,36.48C286.47,316.24,292.77,299.57,282,291.52Z"/><path class="cls-1" d="M281.7,291.26c-1.65-5.85-9.88,19.78-5.34,32.29C278.95,313.42,288.69,300.92,281.7,291.26Z"/><path class="cls-4" d="M309.41,212a16,16,0,0,0,2.48-1.36.46.46,0,0,0,.1-.67.54.54,0,0,0-.72-.13,14.25,14.25,0,0,1-12.22,1.78.48.48,0,1,0-.35.89A15,15,0,0,0,309.41,212Z"/><rect class="cls-1" x="150.08" y="226.05" width="101.62" height="3.3"/><polygon class="cls-1" points="249.28 229.36 152.51 229.36 156.77 231.66 245.02 231.66 249.28 229.36"/><polygon class="cls-7" points="249.28 229.36 152.51 229.36 156.77 231.66 245.02 231.66 249.28 229.36"/><path class="cls-4" d="M182.64,137.61h0a2.26,2.26,0,0,1-2.25-2.25v-7.55a2.26,2.26,0,0,1,2.25-2.25h0a2.26,2.26,0,0,1,2.25,2.25v7.55A2.26,2.26,0,0,1,182.64,137.61Z"/><rect class="cls-4" x="180.39" y="123.24" width="4.5" height="7.24" rx="0.88" ry="0.88" transform="translate(309.5 -55.78) rotate(90)"/><path class="cls-1" d="M186.24,154v-21.5a.88.88,0,0,0-.88-.88h-5.44a.88.88,0,0,0-.88.88V154a11.49,11.49,0,0,1-3.83,8.57h0a11.49,11.49,0,0,0-3.83,8.57v55.16H193.9V171.1a11.49,11.49,0,0,0-3.83-8.57h0A11.49,11.49,0,0,1,186.24,154Z"/><rect class="cls-6" x="179.02" y="177.63" width="14.89" height="35.66"/><path class="cls-1" d="M215,226.05h-2.69A19.65,19.65,0,0,0,215,226.05Z"/><path class="cls-1" d="M231.23,226.05h-2.69A19.66,19.66,0,0,0,231.23,226.05Z"/><path class="cls-10" d="M211.43,183.95V193c0,7.21,4.09,13.18,9.29,13.91v15.84c0,2.46-2.39,3.14-4.24,3.3h10.6c-1.85-.16-4.24-.85-4.24-3.3V206.91c5.2-.72,9.29-6.7,9.29-13.91v-9.06Z"/><path class="cls-4" d="M334.67,175.49c-7.9,3.37-34.61,4.41-45.06,2.15C300.42,162.36,324.69,157.89,334.67,175.49Z"/><path class="cls-4" d="M359.76,230a.49.49,0,0,1-.41-.21c-.25-.36-6.13-9-6.25-32.1,0-9.63-3-17.4-8-21.32a10.75,10.75,0,0,0-9.43-2.15.5.5,0,1,1-.24-1,11.85,11.85,0,0,1,10.28,2.33c5.27,4.11,8.32,12.16,8.37,22.1.11,22.75,6,31.45,6.07,31.54a.5.5,0,0,1-.41.78Z"/><path class="cls-4" d="M502.89,112.88c5.54,7.6,5.53,19.45,3.63,25.91-9.92-4.53-8.39-17.49-8.39-17.49Z"/><path class="cls-6" d="M532.61,206.92l5.73,6.31,5.93,6.41c4,4.25,8,8.38,12,12.35,2,2,4.06,3.91,6.11,5.73s4.06,3.63,6.07,5.23,4,3,5.84,4.28a33.78,33.78,0,0,0,4.38,2.48l-3.06-.48a4,4,0,0,0-2.57.56c0,.11.48,0,1.14-.39a27.87,27.87,0,0,0,5.11-3.9,125.21,125.21,0,0,0,11.41-12.39c3.8-4.56,7.49-9.4,11.18-14.32s7.35-10,11-14.89l.17-.24a9,9,0,0,1,15.75,8,196.79,196.79,0,0,1-7,18.52c-2.61,6-5.5,12-8.76,17.93a122.49,122.49,0,0,1-11.69,17.65,60.32,60.32,0,0,1-8.84,8.9,33.57,33.57,0,0,1-7,4.37,25.83,25.83,0,0,1-11.78,2.43,12,12,0,0,1-2.24-.28l-.82-.19a55.78,55.78,0,0,1-12.56-4.66,90.94,90.94,0,0,1-9.64-5.72,151.62,151.62,0,0,1-16.19-12.56c-5-4.34-9.67-8.9-14.19-13.55-2.23-2.35-4.46-4.68-6.6-7.12s-4.17-4.79-6.41-7.56a17.9,17.9,0,0,1,27.14-23.32Z"/><path class="cls-11" d="M621.85,214.55l17.72.84-5.74-23.83s-16.49,1.21-19.14,9.7a4.19,4.19,0,0,0,.17,2.85l3.26,7.82A4.26,4.26,0,0,0,621.85,214.55Z"/><path class="cls-11" d="M655.38,201.23l-3.42-8a7.08,7.08,0,0,0-8.2-4.1l-9.94,2.44,5.74,23.83,11.95-4.81A7.08,7.08,0,0,0,655.38,201.23Z"/><path class="cls-4" d="M490.71,545.08c-18.83-82.77-30.45-182.55-30.45-182.55l77.15-1.24s-1.08,134.49-.9,190.83c.19,58.57,4.25,187.48,4.25,187.48H517.35S487.13,617.5,490.71,545.08Z"/><path d="M484.7,430.9,472.5,449c3.63,22.59,8,47.48,13,71.87C487.6,483.38,487.23,439.85,484.7,430.9Z"/><path class="cls-4" d="M572,751.07s-32.24-7.6-34.68-12.7h-18l.12,18.94h11.05l1.7-1.75,2.8,1.75c9,0,32.74-.35,38.36-2.37C573.6,752.08,572,751.07,572,751.07Z"/><path class="cls-4" d="M418.94,542.75c8.95-83.23,8.66-138.84,19.54-179.87l70.25-1.06s-29.25,132-42.84,187C452.25,604,429,739.6,429,739.6H407.36S400.54,607.14,418.94,542.75Z"/><path class="cls-6" d="M432.91,379.1c-1.55,10-7.07,68.77-12.82,90.21,46.85,20.77,118.46,12.6,120.67-.88-.67-25-2-89.33-2-89.33Z"/><path class="cls-12" d="M435.51,390c3.65,6.8,11.77,14.42,11.77,14.42S437.16,402.62,435.51,390Z"/><path class="cls-12" d="M529.67,403.88C533,399.7,536.17,391,536.17,391S536.62,401.17,529.67,403.88Z"/><path class="cls-12" d="M436,397.52c1,5,4.75,11.37,4.75,11.37S434.63,405.83,436,397.52Z"/><path class="cls-4" d="M449.26,751.07s-20.11-7.6-22.42-12.7h-18l-.37,18.94h14.66l1.75-1.75,2.76,1.75c9,0,17.21-.35,22.89-2.37C450.81,752.08,449.26,751.07,449.26,751.07Z"/><path class="cls-4" d="M435.9,196.83c24.81-3.08,60.27-2.8,84,1.31a28.79,28.79,0,0,1,23.35,24.21c5,35.89.7,98.63-2.49,161.78-54.29,18.57-111.58-.25-111.58-.25-2-12.75,2.47-54.49,5.46-76.78-4.48-23-14-49.36-20.26-79.92C411.36,212.35,421.12,198.66,435.9,196.83Z"/><path class="cls-13" d="M435.9,196.83c24.81-3.08,60.27-2.8,84,1.31a28.79,28.79,0,0,1,23.35,24.21c5,35.89.7,98.63-2.49,161.78-54.29,18.57-111.58-.25-111.58-.25-2-12.75,2.47-54.49,5.46-76.78-4.48-23-14-49.36-20.26-79.92C411.36,212.35,421.12,198.66,435.9,196.83Z"/><path class="cls-11" d="M460.45,149.42l28.25,23.17c-3.66,9.72-4.81,19.84,11.14,23.74,4,5.27-1.92,14.51-9.08,18.12-16.75-3.83-26.4-8.32-32.89-17.25C459.92,190.2,463.19,163.8,460.45,149.42Z"/><path class="cls-7" d="M472.23,159.09l16.46,13.49a36.1,36.1,0,0,0-2,7c-6.38.46-15.25-6-15.66-11.82A24.15,24.15,0,0,1,472.23,159.09Z"/><path class="cls-11" d="M456.4,133.62c2.58,17.72,3.18,28.23,12.95,36.55,14.69,12.51,36,2.32,38.8-15.86,2.5-16.37-2.13-42.6-20.18-48.08C470.19,100.82,453.82,115.9,456.4,133.62Z"/><path class="cls-4" d="M456.24,141.81a14,14,0,0,0,14.66,3.76c-4.25-4.32-.12-20.12-4.38-26.54,8.25,1.62,40.3,6.28,43.37-4.84,3.32-12-10-21.46-17.38-22.36,2.18,5,2,8.58-6.17,7s-41.74-9.36-38.05,6.4c-10.83,0-11.56,15.76-3.65,23.29A81.11,81.11,0,0,1,456.24,141.81Z"/><path class="cls-4" d="M450.27,104.37c-6.48-1.61-4.45-7.57-3-8.19-6.08,1.46-8.27,7.43-1,10.19S450.27,104.37,450.27,104.37Z"/><path class="cls-11" d="M451.4,144.52A15.41,15.41,0,0,0,459,153.6c4.86,2.48,8.41-1.6,8-6.75-.37-4.63-3.35-11.49-8.68-11.84S449.95,139.7,451.4,144.52Z"/><path class="cls-4" d="M481.28,134.27c.12,1.45,1,2.56,1.94,2.47s1.62-1.33,1.5-2.79-1-2.56-1.94-2.47S481.16,132.82,481.28,134.27Z"/><path class="cls-4" d="M498.63,133.85c.12,1.45,1,2.56,1.94,2.47s1.62-1.33,1.5-2.79-1-2.56-1.94-2.47S498.51,132.4,498.63,133.85Z"/><path class="cls-14" d="M495.12,135.8s4,8.07,8,11.77c-2.37,2.63-6.83,1.94-6.83,1.94Z"/><path class="cls-4" d="M478.6,129.64a.85.85,0,0,1-.9-1.16,8.58,8.58,0,0,1,5.79-5.29.85.85,0,0,1,1,.67.87.87,0,0,1-.67,1h0a6.85,6.85,0,0,0-4.54,4.24A.86.86,0,0,1,478.6,129.64Z"/><path class="cls-4" d="M508.68,127.35a.85.85,0,0,1-.7-.41,6.72,6.72,0,0,0-5.17-3.36.85.85,0,0,1-.82-.88.86.86,0,0,1,.88-.83,8.42,8.42,0,0,1,6.57,4.17.86.86,0,0,1-.77,1.3Z"/><path class="cls-6" d="M457.87,197.2s29,44,40,75.11c10.86-36.47,12.11-65.73,2-76C496.59,200.44,483.46,206,457.87,197.2Z"/><path class="cls-6" d="M448,229.79l-2.81,8-2.8,8.27c-1.84,5.51-3.54,11-5.11,16.48-.78,2.72-1.49,5.43-2.12,8.1s-1.26,5.3-1.7,7.83-.76,5-1,7.17a33.6,33.6,0,0,0-.09,5l-1-2.92c-.82-1.57-1.68-2-1.72-2s.26.4.89.82a28,28,0,0,0,5.86,2.63,125.06,125.06,0,0,0,16.33,4.12c5.82,1.16,11.84,2.1,17.92,3S483,298,489,298.9l.29,0a9,9,0,0,1,.45,17.68,197.46,197.46,0,0,1-19.6,2.71c-6.56.59-13.17.89-19.94.86a122.39,122.39,0,0,1-21.09-1.86,60.23,60.23,0,0,1-12-3.52,33.58,33.58,0,0,1-7.19-4.09,25.84,25.84,0,0,1-7.76-9.19,12,12,0,0,1-.82-2.1l-.22-.81a55.76,55.76,0,0,1-1.9-13.27,90.91,90.91,0,0,1,.43-11.2,151.45,151.45,0,0,1,3.31-20.22c1.42-6.48,3.22-12.74,5.14-18.93,1-3.08,2-6.16,3.11-9.19s2.22-6,3.59-9.24a17.9,17.9,0,0,1,33.44,12.73Z"/><path class="cls-11" d="M491.68,301.49l17.6,2.19-9.72,22.5s-16-4-17.2-12.82a4.19,4.19,0,0,1,.65-2.77l4.54-7.15A4.26,4.26,0,0,1,491.68,301.49Z"/><path class="cls-11" d="M522.45,320.32l-4.74,7.31a7.08,7.08,0,0,1-8.78,2.64l-9.38-4.1,9.72-22.5,11,6.77A7.08,7.08,0,0,1,522.45,320.32Z"/><path class="cls-9" d="M459.28,190.36c-6.71,1.38-9.6,5.17-9.6,5.17s10.93,16.22,31.76,21.29c-.9-3,1.84-12,4.86-15.11C475.24,200,459.28,190.36,459.28,190.36Z"/><path class="cls-9" d="M489.84,191.44a27.31,27.31,0,0,1,10.52,4.33s11.14,12.43-2,19.44c.9-3-6-11.14-12.11-13.51C497.35,200,489.84,191.44,489.84,191.44Z"/><path class="cls-1" d="M487.49,208.77c-8.8-4.71-19.68-9.82-16.65-1.56s-1,11.1,3,13.93,11.86-4.89,14.57-6S487.49,208.77,487.49,208.77Z"/><path class="cls-1" d="M493.71,208.71c6.71-4.51,15.1-9.4,13.62-1.35s2.2,10.87-.72,13.59-10.45-4.9-12.83-6S493.71,208.71,493.71,208.71Z"/><path class="cls-1" d="M486.3,208.13c2-1.2,6.84-2.7,9.24.54s1.63,8.68-1.69,9.33a6.69,6.69,0,0,1-6.47-2.29S490.14,211.31,486.3,208.13Z"/><polygon points="430.27 740.2 406.13 740.88 404.86 727.2 432.89 728.89 430.27 740.2"/><polygon points="541.61 740.15 515.55 740.88 512.66 729.05 541.78 726.21 541.61 740.15"/><path class="cls-15" d="M484.81,296.86c-17.31-5.07-34.74-6.64-37.43-6.47s-3.73,61.3-3.52,86.29c0,3.38,38.91,2.7,48.85,1.18.56-7,.68-57.95,3.27-73.88a5.61,5.61,0,0,0-3.38-6.08A15.73,15.73,0,0,0,484.81,296.86Z"/><rect class="cls-1" x="578.06" y="199.01" width="110.44" height="3.14"/><polygon class="cls-1" points="686.18 202.16 580.36 202.16 584.41 204.35 682.13 204.35 686.18 202.16"/><polygon class="cls-7" points="686.18 202.16 580.36 202.16 584.41 204.35 682.13 204.35 686.18 202.16"/><circle class="cls-1" cx="633.27" cy="154.62" r="4.55"/><path class="cls-1" d="M681,184.44a50.12,50.12,0,0,0-16.75-24l1.23-1.56a52.09,52.09,0,0,1,17.41,25Z"/><path class="cls-1" d="M657.35,155.82a50,50,0,0,0-6.94-3.15l.68-1.87a52.21,52.21,0,0,1,7.21,3.28Z"/><path class="cls-1" d="M633.27,154.62a45.17,45.17,0,0,0-45.17,45.17h90.34A45.17,45.17,0,0,0,633.27,154.62Z"/><path class="cls-16" d="M594.31,195.74H606a1.72,1.72,0,0,0,1.69-1.42c2.36-12.37,9.74-23.15,21.47-32.54A1.56,1.56,0,0,0,628,159a41.21,41.21,0,0,0-35.39,34.78A1.73,1.73,0,0,0,594.31,195.74Z"/><path class="cls-4" d="M489.56,154.74a15.69,15.69,0,0,0,2.78-.15.45.45,0,0,0,.37-.55.53.53,0,0,0-.58-.42A14,14,0,0,1,480.55,150a.47.47,0,1,0-.69.64A14.75,14.75,0,0,0,489.56,154.74Z"/></g></svg>